<mxfile host="app.diagrams.net" modified="2023-07-12T16:56:24.876Z" agent="Mozilla/5.0 (Windows NT 10.0; Win64; x64) AppleWebKit/537.36 (KHTML, like Gecko) Chrome/114.0.0.0 Safari/537.36" etag="SoSYDz4YrW73j_N2gWgj" version="21.5.2" type="github">
  <diagram id="C5RBs43oDa-KdzZeNtuy" name="Page-1">
    <mxGraphModel dx="880" dy="522" grid="1" gridSize="10" guides="1" tooltips="1" connect="1" arrows="1" fold="1" page="1" pageScale="1" pageWidth="827" pageHeight="1169" math="0" shadow="0">
      <root>
        <mxCell id="WIyWlLk6GJQsqaUBKTNV-0" />
        <mxCell id="WIyWlLk6GJQsqaUBKTNV-1" parent="WIyWlLk6GJQsqaUBKTNV-0" />
        <mxCell id="Y8Z9LEFGTUUF-cQ1pWpx-2" value="" style="edgeStyle=orthogonalEdgeStyle;rounded=1;orthogonalLoop=1;jettySize=auto;html=1;" edge="1" parent="WIyWlLk6GJQsqaUBKTNV-1" source="Y8Z9LEFGTUUF-cQ1pWpx-0" target="Y8Z9LEFGTUUF-cQ1pWpx-1">
          <mxGeometry relative="1" as="geometry" />
        </mxCell>
        <mxCell id="Y8Z9LEFGTUUF-cQ1pWpx-0" value="start" style="ellipse;whiteSpace=wrap;html=1;rounded=1;" vertex="1" parent="WIyWlLk6GJQsqaUBKTNV-1">
          <mxGeometry x="369" width="90" height="60" as="geometry" />
        </mxCell>
        <mxCell id="Y8Z9LEFGTUUF-cQ1pWpx-4" value="" style="edgeStyle=orthogonalEdgeStyle;rounded=1;orthogonalLoop=1;jettySize=auto;html=1;" edge="1" parent="WIyWlLk6GJQsqaUBKTNV-1" source="Y8Z9LEFGTUUF-cQ1pWpx-1" target="Y8Z9LEFGTUUF-cQ1pWpx-3">
          <mxGeometry relative="1" as="geometry" />
        </mxCell>
        <mxCell id="Y8Z9LEFGTUUF-cQ1pWpx-1" value="harga, voucher&lt;br&gt;jarak, pajak" style="shape=parallelogram;perimeter=parallelogramPerimeter;whiteSpace=wrap;html=1;fixedSize=1;rounded=1;" vertex="1" parent="WIyWlLk6GJQsqaUBKTNV-1">
          <mxGeometry x="354" y="80" width="120" height="60" as="geometry" />
        </mxCell>
        <mxCell id="Y8Z9LEFGTUUF-cQ1pWpx-6" value="" style="edgeStyle=orthogonalEdgeStyle;rounded=1;orthogonalLoop=1;jettySize=auto;html=1;" edge="1" parent="WIyWlLk6GJQsqaUBKTNV-1" source="Y8Z9LEFGTUUF-cQ1pWpx-3" target="Y8Z9LEFGTUUF-cQ1pWpx-5">
          <mxGeometry relative="1" as="geometry" />
        </mxCell>
        <mxCell id="Y8Z9LEFGTUUF-cQ1pWpx-25" value="none" style="edgeLabel;html=1;align=center;verticalAlign=middle;resizable=0;points=[];rounded=1;" vertex="1" connectable="0" parent="Y8Z9LEFGTUUF-cQ1pWpx-6">
          <mxGeometry x="-0.55" y="-1" relative="1" as="geometry">
            <mxPoint x="1" y="4" as="offset" />
          </mxGeometry>
        </mxCell>
        <mxCell id="Y8Z9LEFGTUUF-cQ1pWpx-12" value="" style="edgeStyle=orthogonalEdgeStyle;rounded=1;orthogonalLoop=1;jettySize=auto;html=1;" edge="1" parent="WIyWlLk6GJQsqaUBKTNV-1" source="Y8Z9LEFGTUUF-cQ1pWpx-3" target="Y8Z9LEFGTUUF-cQ1pWpx-11">
          <mxGeometry relative="1" as="geometry" />
        </mxCell>
        <mxCell id="Y8Z9LEFGTUUF-cQ1pWpx-16" value="v1" style="edgeLabel;html=1;align=center;verticalAlign=middle;resizable=0;points=[];rounded=1;" vertex="1" connectable="0" parent="Y8Z9LEFGTUUF-cQ1pWpx-12">
          <mxGeometry x="-0.2" y="1" relative="1" as="geometry">
            <mxPoint y="-4" as="offset" />
          </mxGeometry>
        </mxCell>
        <mxCell id="Y8Z9LEFGTUUF-cQ1pWpx-20" value="" style="edgeStyle=orthogonalEdgeStyle;rounded=1;orthogonalLoop=1;jettySize=auto;html=1;" edge="1" parent="WIyWlLk6GJQsqaUBKTNV-1" source="Y8Z9LEFGTUUF-cQ1pWpx-3" target="Y8Z9LEFGTUUF-cQ1pWpx-19">
          <mxGeometry relative="1" as="geometry" />
        </mxCell>
        <mxCell id="Y8Z9LEFGTUUF-cQ1pWpx-23" value="v2" style="edgeLabel;html=1;align=center;verticalAlign=middle;resizable=0;points=[];rounded=1;" vertex="1" connectable="0" parent="Y8Z9LEFGTUUF-cQ1pWpx-20">
          <mxGeometry x="-0.175" relative="1" as="geometry">
            <mxPoint y="-5" as="offset" />
          </mxGeometry>
        </mxCell>
        <mxCell id="Y8Z9LEFGTUUF-cQ1pWpx-3" value="v1/v2/none" style="rhombus;whiteSpace=wrap;html=1;rounded=1;" vertex="1" parent="WIyWlLk6GJQsqaUBKTNV-1">
          <mxGeometry x="374" y="160" width="80" height="80" as="geometry" />
        </mxCell>
        <mxCell id="Y8Z9LEFGTUUF-cQ1pWpx-31" value="" style="edgeStyle=orthogonalEdgeStyle;rounded=1;orthogonalLoop=1;jettySize=auto;html=1;" edge="1" parent="WIyWlLk6GJQsqaUBKTNV-1" source="Y8Z9LEFGTUUF-cQ1pWpx-5" target="Y8Z9LEFGTUUF-cQ1pWpx-30">
          <mxGeometry relative="1" as="geometry" />
        </mxCell>
        <mxCell id="Y8Z9LEFGTUUF-cQ1pWpx-5" value="diskon = 0" style="whiteSpace=wrap;html=1;rounded=1;" vertex="1" parent="WIyWlLk6GJQsqaUBKTNV-1">
          <mxGeometry x="354" y="280" width="120" height="60" as="geometry" />
        </mxCell>
        <mxCell id="Y8Z9LEFGTUUF-cQ1pWpx-14" value="" style="edgeStyle=orthogonalEdgeStyle;rounded=1;orthogonalLoop=1;jettySize=auto;html=1;" edge="1" parent="WIyWlLk6GJQsqaUBKTNV-1" source="Y8Z9LEFGTUUF-cQ1pWpx-11" target="Y8Z9LEFGTUUF-cQ1pWpx-13">
          <mxGeometry relative="1" as="geometry" />
        </mxCell>
        <mxCell id="Y8Z9LEFGTUUF-cQ1pWpx-27" value="true" style="edgeLabel;html=1;align=center;verticalAlign=middle;resizable=0;points=[];rounded=1;" vertex="1" connectable="0" parent="Y8Z9LEFGTUUF-cQ1pWpx-14">
          <mxGeometry x="-0.0667" y="-3" relative="1" as="geometry">
            <mxPoint as="offset" />
          </mxGeometry>
        </mxCell>
        <mxCell id="Y8Z9LEFGTUUF-cQ1pWpx-15" style="edgeStyle=orthogonalEdgeStyle;rounded=1;orthogonalLoop=1;jettySize=auto;html=1;exitX=0.5;exitY=1;exitDx=0;exitDy=0;entryX=1;entryY=0.5;entryDx=0;entryDy=0;" edge="1" parent="WIyWlLk6GJQsqaUBKTNV-1" source="Y8Z9LEFGTUUF-cQ1pWpx-11" target="Y8Z9LEFGTUUF-cQ1pWpx-5">
          <mxGeometry relative="1" as="geometry" />
        </mxCell>
        <mxCell id="Y8Z9LEFGTUUF-cQ1pWpx-26" value="false" style="edgeLabel;html=1;align=center;verticalAlign=middle;resizable=0;points=[];rounded=1;" vertex="1" connectable="0" parent="Y8Z9LEFGTUUF-cQ1pWpx-15">
          <mxGeometry x="-0.4941" y="1" relative="1" as="geometry">
            <mxPoint x="-1" y="-12" as="offset" />
          </mxGeometry>
        </mxCell>
        <mxCell id="Y8Z9LEFGTUUF-cQ1pWpx-11" value="harga &lt;br&gt;&amp;gt;=&lt;br&gt;50k" style="rhombus;whiteSpace=wrap;html=1;rounded=1;" vertex="1" parent="WIyWlLk6GJQsqaUBKTNV-1">
          <mxGeometry x="534" y="160" width="80" height="80" as="geometry" />
        </mxCell>
        <mxCell id="Y8Z9LEFGTUUF-cQ1pWpx-32" style="edgeStyle=orthogonalEdgeStyle;rounded=1;orthogonalLoop=1;jettySize=auto;html=1;exitX=0.5;exitY=1;exitDx=0;exitDy=0;entryX=1;entryY=0.5;entryDx=0;entryDy=0;" edge="1" parent="WIyWlLk6GJQsqaUBKTNV-1" source="Y8Z9LEFGTUUF-cQ1pWpx-13" target="Y8Z9LEFGTUUF-cQ1pWpx-30">
          <mxGeometry relative="1" as="geometry" />
        </mxCell>
        <mxCell id="Y8Z9LEFGTUUF-cQ1pWpx-13" value="diskon = min(0.5 * harga, 50000)" style="whiteSpace=wrap;html=1;rounded=1;" vertex="1" parent="WIyWlLk6GJQsqaUBKTNV-1">
          <mxGeometry x="674" y="170" width="120" height="60" as="geometry" />
        </mxCell>
        <mxCell id="Y8Z9LEFGTUUF-cQ1pWpx-22" value="" style="edgeStyle=orthogonalEdgeStyle;rounded=1;orthogonalLoop=1;jettySize=auto;html=1;" edge="1" parent="WIyWlLk6GJQsqaUBKTNV-1" source="Y8Z9LEFGTUUF-cQ1pWpx-19" target="Y8Z9LEFGTUUF-cQ1pWpx-21">
          <mxGeometry relative="1" as="geometry" />
        </mxCell>
        <mxCell id="Y8Z9LEFGTUUF-cQ1pWpx-29" value="true" style="edgeLabel;html=1;align=center;verticalAlign=middle;resizable=0;points=[];rounded=1;" vertex="1" connectable="0" parent="Y8Z9LEFGTUUF-cQ1pWpx-22">
          <mxGeometry x="-0.1667" y="4" relative="1" as="geometry">
            <mxPoint y="-6" as="offset" />
          </mxGeometry>
        </mxCell>
        <mxCell id="Y8Z9LEFGTUUF-cQ1pWpx-24" style="edgeStyle=orthogonalEdgeStyle;rounded=1;orthogonalLoop=1;jettySize=auto;html=1;exitX=0.5;exitY=1;exitDx=0;exitDy=0;entryX=0;entryY=0.5;entryDx=0;entryDy=0;" edge="1" parent="WIyWlLk6GJQsqaUBKTNV-1" source="Y8Z9LEFGTUUF-cQ1pWpx-19" target="Y8Z9LEFGTUUF-cQ1pWpx-5">
          <mxGeometry relative="1" as="geometry" />
        </mxCell>
        <mxCell id="Y8Z9LEFGTUUF-cQ1pWpx-28" value="false" style="edgeLabel;html=1;align=center;verticalAlign=middle;resizable=0;points=[];rounded=1;" vertex="1" connectable="0" parent="Y8Z9LEFGTUUF-cQ1pWpx-24">
          <mxGeometry x="-0.6706" y="-2" relative="1" as="geometry">
            <mxPoint x="2" y="1" as="offset" />
          </mxGeometry>
        </mxCell>
        <mxCell id="Y8Z9LEFGTUUF-cQ1pWpx-19" value="harga&lt;br&gt;&amp;gt;=&lt;br&gt;25k" style="rhombus;whiteSpace=wrap;html=1;rounded=1;" vertex="1" parent="WIyWlLk6GJQsqaUBKTNV-1">
          <mxGeometry x="214" y="160" width="80" height="80" as="geometry" />
        </mxCell>
        <mxCell id="Y8Z9LEFGTUUF-cQ1pWpx-33" style="edgeStyle=orthogonalEdgeStyle;rounded=1;orthogonalLoop=1;jettySize=auto;html=1;exitX=0.5;exitY=1;exitDx=0;exitDy=0;entryX=0;entryY=0.5;entryDx=0;entryDy=0;" edge="1" parent="WIyWlLk6GJQsqaUBKTNV-1" source="Y8Z9LEFGTUUF-cQ1pWpx-21" target="Y8Z9LEFGTUUF-cQ1pWpx-30">
          <mxGeometry relative="1" as="geometry" />
        </mxCell>
        <mxCell id="Y8Z9LEFGTUUF-cQ1pWpx-21" value="diskon = min(0.6 * harga, 30000)" style="whiteSpace=wrap;html=1;rounded=1;" vertex="1" parent="WIyWlLk6GJQsqaUBKTNV-1">
          <mxGeometry x="34" y="170" width="120" height="60" as="geometry" />
        </mxCell>
        <mxCell id="Y8Z9LEFGTUUF-cQ1pWpx-35" value="" style="edgeStyle=orthogonalEdgeStyle;rounded=1;orthogonalLoop=1;jettySize=auto;html=1;" edge="1" parent="WIyWlLk6GJQsqaUBKTNV-1" source="Y8Z9LEFGTUUF-cQ1pWpx-30" target="Y8Z9LEFGTUUF-cQ1pWpx-34">
          <mxGeometry relative="1" as="geometry" />
        </mxCell>
        <mxCell id="Y8Z9LEFGTUUF-cQ1pWpx-30" value="ongkir =&lt;br&gt;(5000*2)+(3000*(jarak -2)" style="whiteSpace=wrap;html=1;rounded=1;" vertex="1" parent="WIyWlLk6GJQsqaUBKTNV-1">
          <mxGeometry x="354" y="390" width="120" height="60" as="geometry" />
        </mxCell>
        <mxCell id="Y8Z9LEFGTUUF-cQ1pWpx-38" style="edgeStyle=orthogonalEdgeStyle;rounded=1;orthogonalLoop=1;jettySize=auto;html=1;exitX=0;exitY=0.5;exitDx=0;exitDy=0;entryX=0.5;entryY=0;entryDx=0;entryDy=0;" edge="1" parent="WIyWlLk6GJQsqaUBKTNV-1" source="Y8Z9LEFGTUUF-cQ1pWpx-34" target="Y8Z9LEFGTUUF-cQ1pWpx-37">
          <mxGeometry relative="1" as="geometry" />
        </mxCell>
        <mxCell id="Y8Z9LEFGTUUF-cQ1pWpx-43" value="false" style="edgeLabel;html=1;align=center;verticalAlign=middle;resizable=0;points=[];rounded=1;" vertex="1" connectable="0" parent="Y8Z9LEFGTUUF-cQ1pWpx-38">
          <mxGeometry x="-0.424" relative="1" as="geometry">
            <mxPoint y="-9" as="offset" />
          </mxGeometry>
        </mxCell>
        <mxCell id="Y8Z9LEFGTUUF-cQ1pWpx-39" style="edgeStyle=orthogonalEdgeStyle;rounded=1;orthogonalLoop=1;jettySize=auto;html=1;exitX=1;exitY=0.5;exitDx=0;exitDy=0;entryX=0.5;entryY=0;entryDx=0;entryDy=0;" edge="1" parent="WIyWlLk6GJQsqaUBKTNV-1" source="Y8Z9LEFGTUUF-cQ1pWpx-34" target="Y8Z9LEFGTUUF-cQ1pWpx-36">
          <mxGeometry relative="1" as="geometry">
            <Array as="points">
              <mxPoint x="534" y="510" />
            </Array>
          </mxGeometry>
        </mxCell>
        <mxCell id="Y8Z9LEFGTUUF-cQ1pWpx-42" value="true" style="edgeLabel;html=1;align=center;verticalAlign=middle;resizable=0;points=[];rounded=1;" vertex="1" connectable="0" parent="Y8Z9LEFGTUUF-cQ1pWpx-39">
          <mxGeometry x="-0.36" y="-1" relative="1" as="geometry">
            <mxPoint y="-9" as="offset" />
          </mxGeometry>
        </mxCell>
        <mxCell id="Y8Z9LEFGTUUF-cQ1pWpx-34" value="pajak" style="rhombus;whiteSpace=wrap;html=1;rounded=1;" vertex="1" parent="WIyWlLk6GJQsqaUBKTNV-1">
          <mxGeometry x="374" y="470" width="80" height="80" as="geometry" />
        </mxCell>
        <mxCell id="Y8Z9LEFGTUUF-cQ1pWpx-45" style="edgeStyle=orthogonalEdgeStyle;rounded=1;orthogonalLoop=1;jettySize=auto;html=1;exitX=0.5;exitY=1;exitDx=0;exitDy=0;entryX=0.5;entryY=0;entryDx=0;entryDy=0;" edge="1" parent="WIyWlLk6GJQsqaUBKTNV-1" source="Y8Z9LEFGTUUF-cQ1pWpx-36" target="Y8Z9LEFGTUUF-cQ1pWpx-44">
          <mxGeometry relative="1" as="geometry" />
        </mxCell>
        <mxCell id="Y8Z9LEFGTUUF-cQ1pWpx-36" value="pajak = 5% dari harga" style="rounded=1;whiteSpace=wrap;html=1;" vertex="1" parent="WIyWlLk6GJQsqaUBKTNV-1">
          <mxGeometry x="474" y="555" width="120" height="60" as="geometry" />
        </mxCell>
        <mxCell id="Y8Z9LEFGTUUF-cQ1pWpx-46" style="edgeStyle=orthogonalEdgeStyle;rounded=1;orthogonalLoop=1;jettySize=auto;html=1;exitX=0.5;exitY=1;exitDx=0;exitDy=0;" edge="1" parent="WIyWlLk6GJQsqaUBKTNV-1" source="Y8Z9LEFGTUUF-cQ1pWpx-37" target="Y8Z9LEFGTUUF-cQ1pWpx-44">
          <mxGeometry relative="1" as="geometry" />
        </mxCell>
        <mxCell id="Y8Z9LEFGTUUF-cQ1pWpx-37" value="pajak = 0" style="rounded=1;whiteSpace=wrap;html=1;" vertex="1" parent="WIyWlLk6GJQsqaUBKTNV-1">
          <mxGeometry x="234" y="555" width="120" height="60" as="geometry" />
        </mxCell>
        <mxCell id="Y8Z9LEFGTUUF-cQ1pWpx-48" value="" style="edgeStyle=orthogonalEdgeStyle;rounded=1;orthogonalLoop=1;jettySize=auto;html=1;" edge="1" parent="WIyWlLk6GJQsqaUBKTNV-1" source="Y8Z9LEFGTUUF-cQ1pWpx-44">
          <mxGeometry relative="1" as="geometry">
            <mxPoint x="414" y="800" as="targetPoint" />
          </mxGeometry>
        </mxCell>
        <mxCell id="Y8Z9LEFGTUUF-cQ1pWpx-44" value="total = harga - diskon + ongkir + pajak" style="rounded=1;whiteSpace=wrap;html=1;" vertex="1" parent="WIyWlLk6GJQsqaUBKTNV-1">
          <mxGeometry x="354" y="700" width="120" height="60" as="geometry" />
        </mxCell>
        <mxCell id="Y8Z9LEFGTUUF-cQ1pWpx-51" style="edgeStyle=orthogonalEdgeStyle;rounded=1;orthogonalLoop=1;jettySize=auto;html=1;exitX=0.5;exitY=1;exitDx=0;exitDy=0;entryX=0.5;entryY=0;entryDx=0;entryDy=0;" edge="1" parent="WIyWlLk6GJQsqaUBKTNV-1" source="Y8Z9LEFGTUUF-cQ1pWpx-49" target="Y8Z9LEFGTUUF-cQ1pWpx-50">
          <mxGeometry relative="1" as="geometry" />
        </mxCell>
        <mxCell id="Y8Z9LEFGTUUF-cQ1pWpx-49" value="output = harga&lt;br&gt;yang harus&amp;nbsp;&lt;br&gt;dibayar" style="shape=parallelogram;perimeter=parallelogramPerimeter;whiteSpace=wrap;html=1;fixedSize=1;rounded=1;" vertex="1" parent="WIyWlLk6GJQsqaUBKTNV-1">
          <mxGeometry x="354" y="800" width="120" height="60" as="geometry" />
        </mxCell>
        <mxCell id="Y8Z9LEFGTUUF-cQ1pWpx-50" value="end" style="ellipse;whiteSpace=wrap;html=1;rounded=1;" vertex="1" parent="WIyWlLk6GJQsqaUBKTNV-1">
          <mxGeometry x="367" y="890" width="94" height="70" as="geometry" />
        </mxCell>
      </root>
    </mxGraphModel>
  </diagram>
</mxfile>
